<svg width="24" height="24" viewBox="0 0 24 24" fill="none" xmlns="http://www.w3.org/2000/svg">
<path d="M19.2844 18.2156C19.4252 18.3578 19.5042 18.5499 19.5042 18.75C19.5042 18.9501 19.4252 19.1422 19.2844 19.2844C19.141 19.423 18.9494 19.5005 18.75 19.5005C18.5506 19.5005 18.359 19.423 18.2156 19.2844L12 13.0594L5.78437 19.2844C5.64102 19.423 5.44941 19.5005 5.25 19.5005C5.05059 19.5005 4.85898 19.423 4.71562 19.2844C4.57479 19.1422 4.49578 18.9501 4.49578 18.75C4.49578 18.5499 4.57479 18.3578 4.71562 18.2156L10.9406 12L4.71562 5.78438C4.59603 5.63866 4.53491 5.45366 4.54416 5.26537C4.5534 5.07708 4.63236 4.89896 4.76566 4.76566C4.89896 4.63236 5.07708 4.55341 5.26537 4.54416C5.45366 4.53491 5.63865 4.59603 5.78437 4.71563L12 10.9406L18.2156 4.71563C18.3613 4.59603 18.5463 4.53491 18.7346 4.54416C18.9229 4.55341 19.101 4.63236 19.2343 4.76566C19.3676 4.89896 19.4466 5.07708 19.4558 5.26537C19.4651 5.45366 19.404 5.63866 19.2844 5.78438L13.0594 12L19.2844 18.2156Z" fill="#3F3F46"/>
</svg>
